<mxfile host="65bd71144e">
    <diagram id="Heprj9tL5eO4QAdMiAxu" name="ページ1">
        <mxGraphModel dx="920" dy="415" grid="1" gridSize="10" guides="1" tooltips="1" connect="1" arrows="1" fold="1" page="1" pageScale="1" pageWidth="827" pageHeight="1169" math="0" shadow="0">
            <root>
                <mxCell id="0"/>
                <mxCell id="1" parent="0"/>
                <mxCell id="53" value="" style="rounded=0;whiteSpace=wrap;html=1;fillColor=default;strokeColor=none;" vertex="1" parent="1">
                    <mxGeometry x="170" y="80" width="570" height="210" as="geometry"/>
                </mxCell>
                <mxCell id="2" value="" style="sketch=0;pointerEvents=1;shadow=0;dashed=0;html=1;strokeColor=#666666;fillColor=#f5f5f5;labelPosition=center;verticalLabelPosition=bottom;verticalAlign=top;outlineConnect=0;align=center;shape=mxgraph.office.concepts.folder;gradientColor=#b3b3b3;" parent="1" vertex="1">
                    <mxGeometry x="220" y="167.5" width="60" height="45" as="geometry"/>
                </mxCell>
                <mxCell id="3" value="ワークツリー" style="text;html=1;align=center;verticalAlign=middle;resizable=0;points=[];autosize=1;fontColor=#FFFFFF;" parent="1" vertex="1">
                    <mxGeometry x="200" y="130" width="100" height="30" as="geometry"/>
                </mxCell>
                <mxCell id="6" value="" style="shape=cylinder3;whiteSpace=wrap;html=1;boundedLbl=1;backgroundOutline=1;size=15;fillColor=#f5f5f5;gradientColor=#b3b3b3;strokeColor=#666666;" parent="1" vertex="1">
                    <mxGeometry x="354" y="170" width="60" height="50" as="geometry"/>
                </mxCell>
                <mxCell id="7" value="ステージング" style="text;html=1;align=center;verticalAlign=middle;resizable=0;points=[];autosize=1;fontColor=#FFFFFF;" parent="1" vertex="1">
                    <mxGeometry x="334" y="130" width="100" height="30" as="geometry"/>
                </mxCell>
                <mxCell id="8" value="ローカルリポジトリ" style="text;html=1;align=center;verticalAlign=middle;resizable=0;points=[];autosize=1;fontColor=#FFFFFF;" parent="1" vertex="1">
                    <mxGeometry x="455" y="130" width="130" height="30" as="geometry"/>
                </mxCell>
                <mxCell id="9" value="" style="shape=cylinder3;whiteSpace=wrap;html=1;boundedLbl=1;backgroundOutline=1;size=15;fillColor=#f5f5f5;gradientColor=#b3b3b3;strokeColor=#666666;" parent="1" vertex="1">
                    <mxGeometry x="490" y="170" width="60" height="50" as="geometry"/>
                </mxCell>
                <mxCell id="10" value="" style="shape=cylinder3;whiteSpace=wrap;html=1;boundedLbl=1;backgroundOutline=1;size=15;fillColor=#f5f5f5;gradientColor=#b3b3b3;strokeColor=#666666;" parent="1" vertex="1">
                    <mxGeometry x="635" y="170" width="60" height="50" as="geometry"/>
                </mxCell>
                <mxCell id="24" value="① add" style="text;html=1;align=center;verticalAlign=middle;resizable=0;points=[];autosize=1;fontColor=#FFFFFF;" parent="1" vertex="1">
                    <mxGeometry x="270" y="160" width="60" height="30" as="geometry"/>
                </mxCell>
                <mxCell id="28" value="" style="edgeStyle=none;orthogonalLoop=1;jettySize=auto;html=1;shape=flexArrow;rounded=1;startSize=8;endSize=3.68;strokeColor=#FFFFFF;endWidth=10;width=2;fillColor=#FFFFFF;" parent="1" edge="1">
                    <mxGeometry width="100" relative="1" as="geometry">
                        <mxPoint x="285" y="190" as="sourcePoint"/>
                        <mxPoint x="345" y="190.5" as="targetPoint"/>
                        <Array as="points"/>
                    </mxGeometry>
                </mxCell>
                <mxCell id="29" value="" style="edgeStyle=none;orthogonalLoop=1;jettySize=auto;html=1;shape=flexArrow;rounded=1;startSize=8;endSize=3.68;strokeColor=#FFFFFF;endWidth=10;width=2;fillColor=#FFFFFF;startArrow=none;" parent="1" edge="1">
                    <mxGeometry width="100" relative="1" as="geometry">
                        <mxPoint x="420" y="190" as="sourcePoint"/>
                        <mxPoint x="485" y="190.5" as="targetPoint"/>
                        <Array as="points"/>
                    </mxGeometry>
                </mxCell>
                <mxCell id="22" value="Github" style="text;html=1;align=center;verticalAlign=middle;resizable=0;points=[];autosize=1;strokeColor=none;fillColor=none;fontColor=#FFFFFF;" parent="1" vertex="1">
                    <mxGeometry x="640" y="100" width="60" height="30" as="geometry"/>
                </mxCell>
                <mxCell id="21" value="" style="verticalLabelPosition=bottom;html=1;verticalAlign=top;align=center;strokeColor=none;fillColor=#00BEF2;shape=mxgraph.azure.github_code;pointerEvents=1;" parent="1" vertex="1">
                    <mxGeometry x="620" y="100" width="30" height="30" as="geometry"/>
                </mxCell>
                <mxCell id="39" value="リモートリポジトリ" style="text;html=1;align=center;verticalAlign=middle;resizable=0;points=[];autosize=1;fontColor=#FFFFFF;" parent="1" vertex="1">
                    <mxGeometry x="600" y="130" width="130" height="30" as="geometry"/>
                </mxCell>
                <mxCell id="48" value="" style="edgeStyle=none;orthogonalLoop=1;jettySize=auto;html=1;shape=flexArrow;rounded=1;startSize=8;endSize=3.68;strokeColor=#FFFFFF;endWidth=10;width=2;fillColor=#FFFFFF;" parent="1" edge="1">
                    <mxGeometry width="100" relative="1" as="geometry">
                        <mxPoint x="565" y="190" as="sourcePoint"/>
                        <mxPoint x="625" y="190.5" as="targetPoint"/>
                        <Array as="points"/>
                    </mxGeometry>
                </mxCell>
                <mxCell id="49" value="③ push" style="text;html=1;align=center;verticalAlign=middle;resizable=0;points=[];autosize=1;fontColor=#FFFFFF;" parent="1" vertex="1">
                    <mxGeometry x="550" y="160" width="60" height="30" as="geometry"/>
                </mxCell>
                <mxCell id="30" value="② commit" style="text;html=1;align=center;verticalAlign=middle;resizable=0;points=[];autosize=1;fontColor=#FFFFFF;" parent="1" vertex="1">
                    <mxGeometry x="400" y="160" width="80" height="30" as="geometry"/>
                </mxCell>
                <mxCell id="51" value="" style="edgeStyle=none;orthogonalLoop=1;jettySize=auto;html=1;shape=flexArrow;rounded=1;startSize=8;endSize=3.68;strokeColor=#FFFFFF;endWidth=10;width=2;fillColor=#FFFFFF;" parent="1" edge="1">
                    <mxGeometry width="100" relative="1" as="geometry">
                        <mxPoint x="660" y="230" as="sourcePoint"/>
                        <mxPoint x="250" y="230" as="targetPoint"/>
                        <Array as="points">
                            <mxPoint x="660" y="260"/>
                            <mxPoint x="460" y="260"/>
                            <mxPoint x="250" y="260"/>
                        </Array>
                    </mxGeometry>
                </mxCell>
                <mxCell id="52" value="④ clone" style="text;html=1;align=center;verticalAlign=middle;resizable=0;points=[];autosize=1;fontColor=#FFFFFF;" parent="1" vertex="1">
                    <mxGeometry x="429" y="230" width="70" height="30" as="geometry"/>
                </mxCell>
            </root>
        </mxGraphModel>
    </diagram>
</mxfile>